# xmcd
#
# Track frame offsets: 
#        182
#        9245
#        22472
#        30822
#        44087
#        53275
#        62625
#        74630
#        85102
#        93930
#        105145
#        117587
#        126660
#        137950
#        147515
#        157030
#        166470
#        176632
#        187022
#        197692
#        207962
#        218802
#        231397
#        240375
#        250237
#        262902
#        277787
#        287595
#
# Disc length: 3976 seconds
#
# Revision: 1
# Processed by: cddbd v1.5.2PL0 Copyright (c) Steve Scherf et al.
# Submitted via: ExactAudioCopyFreeDBPlugin 1.0
#
DISCID=9a0f861c
DTITLE=Various Artist - Hi Records:  The Early Years, Volumes 1+2
DYEAR=1999
DGENRE=Rhythm and Blues
TTITLE0=Jerry Jaye - My Girl Josephine
TTITLE1=Jerry Jaye - Five Miles from Home
TTITLE2=Jerry Jaye - The Middle of Nowhere
TTITLE3=Jerry Jaye - Long Black Veil
TTITLE4=Jerry Jaye - Sugar Bee
TTITLE5=Jerry Jaye - I'm in Love Again
TTITLE6=Jerry Jaye - I Washed My Hands in Muddy Water
TTITLE7=Tommy Tucker - Shackles and Chains
TTITLE8=Tommy Tucker - I'm in Love With a Shadow
TTITLE9=Tommy Tucker - The Wild Side of Life
TTITLE10=Marvel Felts - Since I Met You Baby
TTITLE11=Marvel Felts - Dee Dee
TTITLE12=Marvel Felts - 86 Miles
TTITLE13=Marvel Felts - A Little Bit of Soap
TTITLE14=Charles Eldred - Dark Shaded Glasses
TTITLE15=Murray Kellum - Long Tall Texan
TTITLE16=Glenn Sutton - I Gotta Leave This Town
TTITLE17=Tommy Tucker - Shame Shame Shame
TTITLE18=Gene Simmons - Listen to Me Lie
TTITLE19=Gene Simmons - Wedding Bells
TTITLE20=Gene Simmons - Invitation to the Blues
TTITLE21=Jay B. Loyd - The Time is Right (ft The Bill Black Combo)
TTITLE22=Jerry Arnold - Honey Babe (ft The Bill Black Combo)
TTITLE23=Bill Black Combo - Son of Smokie
TTITLE24=Bill Black Combo - Crank Case (featuring Reggie Young)
TTITLE25=Bill Black Combo - TD's Boogie Woogie (Cyclone Bop)
TTITLE26=Bill Black Combo - Deep Elem Blues (ft Ace Cannon)
TTITLE27=Ace Cannon - Sittin' Tight
EXTD=
EXTT0=
EXTT1=
EXTT2=
EXTT3=
EXTT4=
EXTT5=
EXTT6=
EXTT7=
EXTT8=
EXTT9=
EXTT10=
EXTT11=
EXTT12=
EXTT13=
EXTT14=
EXTT15=
EXTT16=
EXTT17=
EXTT18=
EXTT19=
EXTT20=
EXTT21=
EXTT22=
EXTT23=
EXTT24=
EXTT25=
EXTT26=
EXTT27=
PLAYORDER=
